<?xml version="1.0" encoding="utf-8"?>
<!-- Generator: Adobe Illustrator 19.2.1, SVG Export Plug-In . SVG Version: 6.00 Build 0)  -->
<svg version="1.1" id="Layer_1" xmlns="http://www.w3.org/2000/svg" xmlns:xlink="http://www.w3.org/1999/xlink" x="0px" y="0px"
	 viewBox="0 0 181.6 198.4" style="enable-background:new 0 0 181.6 198.4;" xml:space="preserve">
<style type="text/css">
	.st0{fill:#333333;}
	.st1{fill:#E6E7E8;}
	.st2{font-family:'Quicksand-Regular';}
	.st3{font-size:181.3683px;}
	.st4{letter-spacing:-9;}
</style>
<g>
	<circle class="st0" cx="91.4" cy="98.8" r="86.8"/>
	<text transform="matrix(1 0 0 1 37.7614 164.3615)" class="st1 st2 st3 st4">&amp;</text>
	<g>
		<g>
			<path class="st1" d="M116.3,191.8c-1.4,0-2.6-0.5-3.5-1.5c-0.9-0.9-1.3-2.1-1.3-3.4v-64.3c0-1.3,0.5-2.5,1.4-3.4
				c0.9-0.9,2.1-1.4,3.4-1.4h15.4c5.4,0,10.1,1.9,13.9,5.8c3.8,3.8,5.8,8.7,5.8,14.4c0,4.6-1.6,8.7-4.7,12.2
				c2.8,1.6,5.3,3.7,7.3,6.4c2.9,3.8,4.3,8.2,4.3,13c0,6.1-2.2,11.4-6.5,15.7s-9.6,6.5-15.7,6.5H116.3z M136.1,182
				c3.4,0,6.3-1.2,8.7-3.6c2.4-2.4,3.7-5.3,3.7-8.8c-0.1-3.4-1.3-6.2-3.7-8.7c-2.4-2.5-5.3-3.6-8.7-3.6h-14.8V182H136.1z
				 M131.8,147.3c2.8,0,5-0.9,7-2.9s2.9-4.2,2.9-6.9c0-2.7-0.9-5-2.9-7c-1.9-2-4.2-2.9-7-2.9h-10.4v19.7H131.8z"/>
			<path class="st0" d="M131.8,120.3c4.7,0,8.8,1.7,12.1,5c3.4,3.4,5,7.6,5,12.7c0,5.1-2.2,9.4-6.6,13c3.9,1.4,7.2,3.8,9.7,7.2
				c2.5,3.4,3.8,7.2,3.8,11.5c0,5.5-1.9,10.1-5.8,14s-8.5,5.8-14,5.8h-19.8c-0.7,0-1.2-0.2-1.6-0.7c-0.4-0.5-0.6-1-0.6-1.7v-64.3
				c0-0.7,0.2-1.2,0.7-1.7c0.5-0.5,1-0.7,1.7-0.7H131.8 M118.8,149.8h12.9c3.4,0,6.3-1.2,8.7-3.6c2.4-2.4,3.6-5.3,3.6-8.7
				c0-3.4-1.2-6.3-3.6-8.7c-2.4-2.4-5.3-3.7-8.7-3.7h-12.9V149.8 M118.8,184.5h17.3c4.1,0,7.6-1.4,10.5-4.3
				c2.9-2.9,4.4-6.4,4.4-10.6c-0.1-4.1-1.5-7.6-4.4-10.5c-2.9-2.9-6.4-4.4-10.5-4.4h-17.3V184.5 M131.8,115.3h-15.4
				c-2,0-3.8,0.8-5.2,2.2c-1.4,1.4-2.2,3.2-2.2,5.2V187c0,1.9,0.7,3.7,2,5.1c1.4,1.5,3.2,2.3,5.3,2.3h19.8c6.8,0,12.7-2.4,17.5-7.2
				c4.8-4.8,7.2-10.7,7.2-17.5c0-5.4-1.6-10.2-4.8-14.5c-1.6-2.2-3.5-4-5.6-5.6c2.3-3.4,3.5-7.3,3.5-11.6c0-6.4-2.2-11.9-6.5-16.2
				C143.1,117.4,137.9,115.3,131.8,115.3L131.8,115.3z M123.8,130.1h7.9c2.1,0,3.7,0.7,5.2,2.2c1.5,1.5,2.2,3.2,2.2,5.2
				c0,2.1-0.7,3.7-2.1,5.1c-1.5,1.5-3.1,2.1-5.2,2.1h-7.9V130.1L123.8,130.1z M123.8,159.7h12.3c2.7,0,4.9,0.9,6.9,2.9
				c2,2,2.9,4.2,3,7c-0.1,2.8-1,5.1-3,7c-2,2-4.2,2.9-6.9,2.9h-12.3V159.7L123.8,159.7z"/>
		</g>
	</g>
	<g>
		<g>
			<path class="st1" d="M40,78.8c-1.4,0-2.6-0.5-3.5-1.5c-0.9-0.9-1.3-2.1-1.3-3.4V9.6c0-1.3,0.5-2.5,1.4-3.4
				c0.9-0.9,2.1-1.4,3.4-1.4h15.4c5.4,0,10.1,1.9,13.9,5.8c3.8,3.8,5.8,8.7,5.8,14.4c0,4.6-1.6,8.7-4.7,12.2
				c2.8,1.6,5.3,3.7,7.3,6.4c2.9,3.8,4.3,8.2,4.3,13c0,6.1-2.2,11.4-6.5,15.7c-4.3,4.3-9.6,6.5-15.7,6.5H40z M59.9,68.9
				c3.4,0,6.3-1.2,8.7-3.6c2.4-2.4,3.7-5.3,3.7-8.8c-0.1-3.4-1.3-6.2-3.7-8.7c-2.4-2.5-5.3-3.6-8.7-3.6H45.1v24.8H59.9z M55.5,34.2
				c2.8,0,5-0.9,7-2.9c1.9-1.9,2.9-4.2,2.9-6.9c0-2.7-0.9-5-2.9-7c-1.9-2-4.2-2.9-7-2.9H45.1v19.7H55.5z"/>
			<path class="st0" d="M55.5,7.2c4.7,0,8.8,1.7,12.1,5c3.4,3.4,5,7.6,5,12.7c0,5.1-2.2,9.4-6.6,13c3.9,1.4,7.2,3.8,9.7,7.2
				c2.5,3.4,3.8,7.2,3.8,11.5c0,5.5-1.9,10.1-5.8,14s-8.5,5.8-14,5.8H40c-0.7,0-1.2-0.2-1.6-0.7c-0.4-0.5-0.6-1-0.6-1.7V9.6
				c0-0.7,0.2-1.2,0.7-1.7c0.5-0.5,1-0.7,1.7-0.7H55.5 M42.6,36.7h12.9c3.4,0,6.3-1.2,8.7-3.6c2.4-2.4,3.6-5.3,3.6-8.7
				c0-3.4-1.2-6.3-3.6-8.7c-2.4-2.4-5.3-3.7-8.7-3.7H42.6V36.7 M42.6,71.4h17.3c4.1,0,7.6-1.4,10.5-4.3c2.9-2.9,4.4-6.4,4.4-10.6
				c-0.1-4.1-1.5-7.6-4.4-10.5c-2.9-2.9-6.4-4.4-10.5-4.4H42.6V71.4 M55.5,2.2H40.1c-2,0-3.8,0.8-5.2,2.2c-1.4,1.4-2.2,3.2-2.2,5.2
				v64.3c0,1.9,0.7,3.7,2,5.1c1.4,1.5,3.2,2.3,5.3,2.3h19.8c6.8,0,12.7-2.4,17.5-7.2c4.8-4.8,7.2-10.7,7.2-17.5
				c0-5.4-1.6-10.2-4.8-14.5c-1.6-2.2-3.5-4-5.6-5.6c2.3-3.4,3.5-7.3,3.5-11.6c0-6.4-2.2-11.9-6.5-16.2C66.9,4.4,61.6,2.2,55.5,2.2
				L55.5,2.2z M47.6,17h7.9c2.1,0,3.7,0.7,5.2,2.2c1.5,1.5,2.2,3.2,2.2,5.2c0,2.1-0.7,3.7-2.1,5.1c-1.5,1.5-3.1,2.1-5.2,2.1h-7.9V17
				L47.6,17z M47.6,46.6h12.3c2.7,0,4.9,0.9,6.9,2.9c2,2,2.9,4.2,3,7c-0.1,2.8-1,5.1-3,7c-2,2-4.2,2.9-6.9,2.9H47.6V46.6L47.6,46.6z
				"/>
		</g>
	</g>
</g>
</svg>
