<svg id="Layer_1" data-name="Layer 1" xmlns="http://www.w3.org/2000/svg" viewBox="0 0 173.56 192.13"><defs><style>.cls-1{fill:#333132;}.cls-2{fill:#e6e7e8;}</style></defs><title>bandblogo</title><circle class="cls-1" cx="86.78" cy="96.62" r="86.78"/><path class="cls-2" d="M140.23,97.8Q141,109,128.81,114.3a43.68,43.68,0,0,1,.91,8.52,39.87,39.87,0,0,1-12.24,29.38,40.11,40.11,0,0,1-29.29,12.15,40.11,40.11,0,0,1-29.29-12.15,39.87,39.87,0,0,1-12.24-29.38,40.82,40.82,0,0,1,4.81-19.41A41.54,41.54,0,0,1,64.6,88.55a29.37,29.37,0,0,1-8-20.86,29.12,29.12,0,0,1,9-21.31,29.53,29.53,0,0,1,21.67-9,30.65,30.65,0,0,1,30.65,30.65,4.06,4.06,0,0,1-1.36,3.08,4.5,4.5,0,0,1-3.17,1.27A4.33,4.33,0,0,1,109,68.05,21.67,21.67,0,0,0,87.28,46.29a21,21,0,0,0-15.42,6.35Q65.51,59,65.51,69.05t9.25,16.59q2.9,2.36,1.45,5.26a3,3,0,0,1-1.27,1.9,5.51,5.51,0,0,1-1.81,1,34.24,34.24,0,0,0-12.79,12,32.5,32.5,0,0,0,4.81,40.08,32.4,32.4,0,0,0,46.07,0,31.42,31.42,0,0,0,9.61-23,33.75,33.75,0,0,0-.91-7.44,32.14,32.14,0,0,0-5.44-.36q-23.94,0-23.94,14.87a16,16,0,0,0,.54,3.81q0.91,4.35-2.9,5.62a4,4,0,0,1-1.27.18,4.06,4.06,0,0,1-4.35-3.08q-0.91-.91-0.91-6.53A20.23,20.23,0,0,1,88,114.49q8.34-8.34,26.48-8.34a39.49,39.49,0,0,1,6.35.36h2.9a12.09,12.09,0,0,0,5.08-2,8.29,8.29,0,0,0,2.54-6.08,29.54,29.54,0,0,0-.36-5.35,3.86,3.86,0,0,1,.45-3.36,4.2,4.2,0,0,1,2.81-1.9q4-.91,5.44,3.26A48.05,48.05,0,0,1,140.23,97.8Z" transform="translate(-4.59 -2.2)"/><path class="cls-2" d="M116.28,191.83a4.6,4.6,0,0,1-3.46-1.49,4.87,4.87,0,0,1-1.31-3.38V122.62a4.86,4.86,0,0,1,4.87-4.87h15.39a19,19,0,0,1,13.91,5.76A19.68,19.68,0,0,1,151.45,138a17.88,17.88,0,0,1-4.69,12.22,22.9,22.9,0,0,1,7.3,6.41,21.26,21.26,0,0,1,4.3,13,22.21,22.21,0,0,1-22.24,22.24H116.28ZM136.12,182a11.75,11.75,0,0,0,8.69-3.61,12.22,12.22,0,0,0,0-17.54,11.68,11.68,0,0,0-8.68-3.65H121.35V182h14.77Zm-4.34-34.74a9.8,9.8,0,0,0,9.83-9.79,9.51,9.51,0,0,0-2.88-7,9.33,9.33,0,0,0-7-2.91H121.35v19.67h10.43Z" transform="translate(-4.59 -2.2)"/><path class="cls-1" d="M131.78,120.26a16.54,16.54,0,0,1,12.14,5,17.19,17.19,0,0,1,5,12.68q0,7.65-6.61,13a20.24,20.24,0,0,1,9.72,7.15,18.72,18.72,0,0,1,3.8,11.5,19.71,19.71,0,0,1-19.74,19.74H116.28a2.12,2.12,0,0,1-1.63-.69A2.37,2.37,0,0,1,114,187V122.62a2.36,2.36,0,0,1,2.37-2.37h15.39m-12.93,29.5h12.93a12.33,12.33,0,0,0,0-24.67H118.85v24.67m0,34.74h17.27a14.26,14.26,0,0,0,10.46-4.34,14.72,14.72,0,0,0,0-21.07,14.18,14.18,0,0,0-10.46-4.39H118.85v29.8m12.93-69.24H116.38a7.36,7.36,0,0,0-7.37,7.37V187a7.33,7.33,0,0,0,2,5.09,7.12,7.12,0,0,0,5.29,2.28h19.83a24.63,24.63,0,0,0,19.94-39.22,25.74,25.74,0,0,0-5.63-5.55A20.13,20.13,0,0,0,153.95,138a22.1,22.1,0,0,0-6.5-16.22,21.45,21.45,0,0,0-15.67-6.5h0Zm-7.93,14.83h7.93a6.86,6.86,0,0,1,5.18,2.16,7,7,0,0,1,2.16,5.22,7.3,7.3,0,0,1-7.33,7.29h-7.93V130.09h0Zm0,29.6h12.27A9.18,9.18,0,0,1,143,162.6a9.72,9.72,0,0,1,0,14,9.24,9.24,0,0,1-6.92,2.88H123.85v-19.8h0Z" transform="translate(-4.59 -2.2)"/><path class="cls-2" d="M40,78.77a4.6,4.6,0,0,1-3.46-1.49,4.87,4.87,0,0,1-1.31-3.38V9.56A4.86,4.86,0,0,1,40.13,4.7H55.52a19,19,0,0,1,13.91,5.76,19.68,19.68,0,0,1,5.77,14.45A17.88,17.88,0,0,1,70.5,37.13a22.9,22.9,0,0,1,7.3,6.41,21.25,21.25,0,0,1,4.3,13A22.21,22.21,0,0,1,59.87,78.77H40Zm19.83-9.83a11.75,11.75,0,0,0,8.69-3.61,12.21,12.21,0,0,0,0-17.54,11.68,11.68,0,0,0-8.68-3.65H45.1v24.8H59.87ZM55.52,34.2a9.8,9.8,0,0,0,9.83-9.79,9.51,9.51,0,0,0-2.88-7,9.33,9.33,0,0,0-7-2.91H45.1V34.2H55.52Z" transform="translate(-4.59 -2.2)"/><path class="cls-1" d="M55.52,7.2a16.54,16.54,0,0,1,12.14,5,17.19,17.19,0,0,1,5,12.68q0,7.65-6.61,13A20.24,20.24,0,0,1,75.8,45a18.72,18.72,0,0,1,3.8,11.5A19.71,19.71,0,0,1,59.87,76.27H40a2.12,2.12,0,0,1-1.63-.69,2.37,2.37,0,0,1-.64-1.68V9.56A2.36,2.36,0,0,1,40.13,7.2H55.52M42.6,36.7H55.52A12.3,12.3,0,0,0,67.86,24.42a12,12,0,0,0-3.6-8.73A11.82,11.82,0,0,0,55.52,12H42.6V36.7m0,34.74H59.87a14.26,14.26,0,0,0,10.46-4.34,14.72,14.72,0,0,0,0-21.07,14.18,14.18,0,0,0-10.46-4.39H42.6v29.8M55.52,2.2H40.13a7.36,7.36,0,0,0-7.37,7.37V73.9a7.33,7.33,0,0,0,2,5.09A7.12,7.12,0,0,0,40,81.27H59.87A24.71,24.71,0,0,0,84.6,56.54,23.7,23.7,0,0,0,79.81,42a25.74,25.74,0,0,0-5.63-5.55,20.13,20.13,0,0,0,3.52-11.59A22.1,22.1,0,0,0,71.2,8.69,21.45,21.45,0,0,0,55.52,2.2h0ZM47.6,17h7.93a6.86,6.86,0,0,1,5.18,2.16,7,7,0,0,1,2.16,5.22,7.3,7.3,0,0,1-7.33,7.29H47.6V17h0Zm0,29.6H59.87a9.18,9.18,0,0,1,6.91,2.91,9.72,9.72,0,0,1,0,14,9.24,9.24,0,0,1-6.92,2.88H47.6V46.63h0Z" transform="translate(-4.59 -2.2)"/></svg>